<svg xmlns="http://www.w3.org/2000/svg" fill="#F40009" viewBox="0 0 320 58"><script xmlns=""/>
  <path d="M127.97 4.37C127.97 4.37 124.53 5.74 120.57 10.1 116.61 14.47 114.27 19.44 115.96 20.73 116.61 21.22 118.15 21.3 120.89 18.84 123.44 16.61 125.42 13.86 126.72 10.75 128.53 6.43 127.97 4.45 127.97 4.37ZM149.75 12.25C145.35 9.98 142.12 7.19 138.72 5.5 135.53 3.84 133.42 3.15 130.84 3.52 130.47 3.6 130.11 3.68 129.79 3.8 129.79 3.8 131.12 8.37 125.83 16.05 120.45 23.81 115.56 23.77 114.19 21.62 112.73 19.36 114.59 14.75 117.74 10.67 121.02 6.39 126.8 2.83 126.8 2.83 126.8 2.83 124.98 1.7 120.45 4.28 116.04 6.79 108.45 12.73 101.41 22.76 94.38 32.78 92.96 38.28 91.95 42.64 90.94 47.01 91.87 51.62 96.68 51.62 101.49 51.62 107.11 44.26 108.69 41.71 111.64 36.94 113.54 29.67 109.54 30.68 107.56 31.16 105.98 33.35 104.97 35.45 104.32 36.78 103.84 38.24 103.51 39.69 102.1 40.26 100.81 41.03 99.63 41.96 98.3 42.93 97.09 44.02 95.96 45.23 95.96 45.23 95.96 41.75 98.74 36.13 101.53 30.52 106.59 27.97 109.46 27.73 112.04 27.49 115.44 29.71 112.57 37.83 109.7 45.96 101.29 55.82 92.44 55.94 84.27 56.06 78.9 45.63 90.26 27.44 102.83 7.32 117.58 1.13 122.39.44 127.2-.24 128.74 1.86 128.74 1.86 131.6.69 134.76.16 137.87.36 143.73.77 148.26 4.89 154.24 7.8 152.58 9.22 151.09 10.79 149.75 12.25ZM176.07 5.46C172.03 8.04 166.41 10.43 160.99 9.9 159.62 11.32 158.16 12.93 156.71 14.75 166.04 16.61 174.25 10.79 178.61 5.86 180.19 4.08 181.56 2.14 182.66.04 180.68 2.1 178.45 3.92 176.07 5.46ZM163.62 31.81C163.7 31.69 163.74 31.57 163.78 31.45 163.74 31 163.38 30.68 162.93 30.64 162.04 30.6 160.83 30.76 157.64 34.28 155.01 37.19 152.7 40.42 150.85 43.9 149.03 47.21 148.3 49.72 149.35 50.36 149.71 50.52 150.08 50.56 150.44 50.48 151.17 50.32 151.94 49.63 153.19 48.22 153.76 47.57 154.4 46.6 155.17 45.55 157.27 42.68 162.57 33.67 163.62 31.81ZM130.51 35.69C131.04 34.32 131.73 31.57 130.31 30.48 128.78 29.34 124.94 32.01 124.94 34.76 124.94 37.55 127.64 38.84 128.33 39 128.7 39.09 128.82 39.09 129.02 38.8 129.59 37.79 130.07 36.74 130.51 35.69ZM127.6 40.78C126.63 40.34 125.75 39.77 124.98 39.09 124.17 38.4 123.48 37.59 123 36.66 122.96 36.58 122.88 36.62 122.83 36.74 122.79 36.86 122.55 36.98 120.49 40.06 118.43 43.13 115.28 49.31 118.15 50.36 119.97 51.05 123.04 47.86 124.69 45.71 125.83 44.22 126.84 42.68 127.77 41.07 127.77 40.82 127.69 40.78 127.6 40.78ZM160.02 47.98C159.25 49.23 158.36 51.57 160.95 50.12 164.06 48.3 168.51 41.55 168.51 41.55H170.53C168.71 44.38 166.65 47.05 164.43 49.55 161.27 53.07 157.43 56.26 154.69 55.94 151.49 55.58 152.5 51.41 152.5 51.41 152.5 51.41 147.94 56.26 144.82 55.9 140.58 55.41 141.87 50.16 141.87 50.16 141.87 50.16 137.02 56.06 133.79 55.9 128.66 55.62 129.95 49.35 131.36 44.99 132.13 42.64 132.82 40.78 132.82 40.78 132.82 40.78 132.33 40.9 131.24 41.07 130.68 41.15 129.63 41.23 129.63 41.23 128.45 43.29 127.16 45.31 125.79 47.25 124.09 49.51 116.81 57.31 112.57 55.74 108.61 54.28 109.9 48.26 112.2 43.45 115.56 36.46 124.98 26.39 130.43 27.69 136.05 29.06 130.56 39.37 130.56 39.37 130.56 39.41 130.6 39.41 130.6 39.45 130.96 39.53 131.32 39.49 131.69 39.41 132.37 39.25 133.06 39.04 133.75 38.8 133.75 38.8 139.41 26.92 145.67 19.16 151.94 11.4 164.43-2.06 169.36 1.17 170.57 1.94 170 4.69 168.39 8.04 167.66 8.25 166.93 8.45 166.16 8.61 167.26 6.63 167.98 4.97 168.19 3.84 168.91-.16 159.54 8.29 152.87 17.42 148.82 22.92 145.27 28.7 142.16 34.76 143.37 34.03 144.54 33.22 145.63 32.29 148.62 29.79 151.45 27.16 154.12 24.33 156.71 21.71 159.13 18.92 161.35 15.97 162.08 15.93 162.77 15.84 163.5 15.72 161.03 19.04 158.36 22.19 155.49 25.18 152.83 27.89 149.92 30.8 147.41 32.9 145.19 34.8 142.8 36.58 140.34 38.16 140.34 38.16 134.48 49.96 137.67 50.73 139.53 51.17 143.25 45.47 143.25 45.47 143.25 45.47 148.06 38.12 150.97 34.8 154.93 30.27 158.36 27.69 161.76 27.61 163.74 27.57 164.91 29.71 164.91 29.71L165.84 28.25H171.62C171.62 28.29 160.87 46.56 160.02 47.98ZM176.07 5.46C172.03 8.04 166.41 10.43 160.99 9.9 159.62 11.32 158.16 12.93 156.71 14.75 166.04 16.61 174.25 10.79 178.61 5.86 180.19 4.08 181.56 2.14 182.66.04 180.68 2.1 178.45 3.92 176.07 5.46ZM95.15 14.47H89.65L86.54 19.48H92.03L95.15 14.47ZM69.2 31.81C71.54 28.62 77.97 17.42 77.97 17.42 77.89 16.98 77.56 16.65 77.12 16.61 76.23 16.57 74.74 16.9 71.78 20.57 68.83 24.25 66.57 27.2 64.87 30.27 63.05 33.63 62.25 35.97 63.3 36.62 63.62 36.78 64.02 36.82 64.39 36.74 65.08 36.58 65.96 35.89 67.18 34.48 67.78 33.75 68.43 32.86 69.2 31.81ZM39.77 16.69C38.28 15.56 34.4 18.23 34.4 20.98 34.36 23.77 37.87 24.57 38.32 24.62 38.52 24.7 38.76 24.57 38.88 24.37 39.29 23.56 39.65 22.76 39.97 21.91 40.54 20.53 41.23 17.78 39.77 16.69ZM37.51 26.39C36.46 26.07 35.45 25.63 34.52 25.02 33.63 24.41 32.9 23.6 32.38 22.68 32.34 22.59 32.25 22.68 32.21 22.76 32.17 22.84 31.85 23.24 29.79 26.23 27.73 29.22 24.7 35.45 27.53 36.5 29.43 37.19 32.46 33.95 34.15 31.81 35.41 30.11 36.54 28.37 37.59 26.56 37.67 26.39 37.59 26.35 37.51 26.31M82.29 28.17H84.31C84.31 28.17 74.25 42.72 68.59 42.08 65.4 41.71 66.37 37.79 66.37 37.79 66.37 37.79 61.84 43.01 57.8 41.96 54.08 40.99 56.47 34.84 56.47 34.84 56.06 35 48.02 44.1 42.36 41.91 36.46 39.65 39.53 32.05 40.66 29.79 41.63 27.85 42.68 25.99 42.68 25.99 42.68 25.99 41.79 26.23 41.23 26.39 40.66 26.56 39.81 26.68 39.81 26.68 39.81 26.68 37.02 31.2 35.33 33.47 33.63 35.73 26.35 43.53 22.07 42 17.78 40.46 18.84 34.48 21.26 29.71 25.14 21.99 34.4 12.53 39.97 13.94 45.55 15.36 40.94 24.49 40.94 24.49 40.94 24.49 42.08 24.66 44.74 22.8 48.62 20.17 53.68 13.06 59.21 13.9 61.8 14.31 64.23 16.98 60.91 22.03 59.86 23.65 58.08 25.1 56.71 23.65 55.86 22.76 56.59 21.14 57.48 20.01 58.16 19.08 59.3 18.55 60.47 18.63 60.47 18.63 61.32 16.53 59.01 16.57 57.15 16.61 52.38 20.98 49.72 25.38 47.25 29.47 43.53 36.38 47.29 37.87 50.73 39.25 57.23 31.53 60.27 27.44 63.3 23.36 70.17 14.19 75.95 13.78 77.93 13.66 79.1 15.48 79.1 15.48L79.79 14.43H85.57C85.57 14.43 74.69 32.58 73.85 33.95 73.16 35.04 72.31 37.47 74.74 36.09 77.2 34.72 82.29 28.13 82.29 28.13M79.18 57.27C74.94 54.32 69.84 52.83 64.67 53.03 61.84 53.11 59.17 54.53 57.56 56.87 55.37 53.03 51.01 50.65 44.26 50.73 33.39 50.85 22.59 55.9 14.03 55.9 5.78 55.9-.2 50.77 0 41.59.32 25.54 13.9 11.07 24.05 4.57 29.87.81 34.76-.28 37.95.08 40.3.36 43.09 3.03 41.31 6.99 38.72 12.81 35.12 12.33 35.25 9.54 35.33 7.76 36.54 6.59 37.43 5.98 38.08 5.62 38.8 5.46 39.53 5.46 40.02 5.01 40.42 1.86 36.26 2.91 32.09 3.96 27.08 8.04 22.31 13.3 17.54 18.55 10.06 28.62 8.21 39.13 7.36 44.02 7.92 52.91 19.48 52.79 29.26 52.71 43.73 46.24 56.99 46.36 62.17 46.4 66.65 47.78 70.13 49.96 73.6 52.1 77.69 55.17 79.18 57.27ZM179.42 29.06V14.31H189.97V16.41H181.85V20.45H188.92V22.43H181.85V26.96H190.17V29.06H179.42ZM204.68 14.31V23.04C204.68 26.76 202.14 29.3 198.54 29.3 194.94 29.3 192.48 26.84 192.48 23.12V14.31H194.94V23.04C194.94 25.46 196.48 27.04 198.62 27.04 200.76 27.04 202.3 25.46 202.3 23.04V14.31H204.68ZM210.38 16.37V21.75H214.02C215.88 21.75 217.01 20.61 217.01 19.04 217.01 17.46 215.88 16.37 214.02 16.37H210.38ZM207.96 14.31H214.34C217.42 14.31 219.48 16.25 219.48 18.96 219.52 21.02 218.1 22.84 216.08 23.32L220.12 29.06H217.29L213.58 23.65H210.46V29.06H208.04L207.96 14.31ZM234.47 21.71C234.43 18.8 232.05 16.49 229.14 16.53 226.23 16.57 223.92 18.96 223.96 21.87 224 24.74 226.35 27 229.18 27.04 232.05 27.08 234.39 24.78 234.43 21.91 234.43 21.83 234.43 21.75 234.47 21.71ZM236.86 21.62C236.86 25.83 233.5 29.22 229.3 29.26 229.26 29.26 229.18 29.26 229.14 29.26 225.01 29.34 221.62 26.07 221.54 21.95 221.54 21.87 221.54 21.83 221.54 21.75 221.54 17.54 224.93 14.11 229.14 14.11 229.18 14.11 229.22 14.11 229.26 14.11 233.62 14.11 236.9 17.38 236.86 21.62ZM242.11 16.37V21.99H245.63C247.53 21.99 248.78 20.78 248.78 19.2 248.78 17.62 247.53 16.37 245.63 16.37H242.11ZM239.69 14.31H245.87C249.06 14.31 251.21 16.29 251.21 19.12 251.21 21.95 249.02 23.97 245.83 23.97H242.11V29.02H239.69V14.31ZM255.49 23.48H260.66L258.08 17.1 255.49 23.48ZM265.52 29.06H262.85L261.35 25.38H254.8L253.31 29.06H250.76L256.95 14.31H259.37L265.52 29.06ZM273.8 14.11C277.52 14.11 279.38 16.41 279.38 16.41L277.6 17.95C276.59 16.9 275.21 16.29 273.76 16.33 270.81 16.33 268.43 18.75 268.43 21.71 268.43 24.66 270.81 27.08 273.8 27.08 275.34 27.08 276.79 26.39 277.8 25.26L279.5 26.8C279.5 26.8 277.64 29.34 273.72 29.34 269.36 29.34 266.04 26.07 266.04 21.79 266 17.58 269.4 14.15 273.6 14.15 273.68 14.11 273.72 14.11 273.8 14.11ZM284.59 14.31H282.09V29.06H284.59V14.31ZM290.7 23.16V29.06H288.27V14.31H298.62V16.41H290.7V21.14H297.57V23.16H290.7ZM303.75 14.31H301.25V29.06H303.75V14.31ZM314.3 14.11C318.02 14.11 319.88 16.41 319.88 16.41L318.1 17.95C317.09 16.9 315.72 16.29 314.26 16.33 311.31 16.33 308.93 18.75 308.93 21.71 308.93 24.66 311.35 27.04 314.3 27.04 315.84 27.04 317.29 26.35 318.3 25.22L320 26.76C320 26.76 318.14 29.3 314.22 29.3 310.1 29.39 306.66 26.15 306.58 22.03 306.58 21.95 306.58 21.87 306.58 21.79 306.58 17.58 309.98 14.15 314.18 14.15 314.18 14.11 314.26 14.11 314.3 14.11ZM187.87 41.27C189.53 41.27 190.34 40.62 190.34 39.57 190.34 39.45 190.34 39.33 190.29 39.21 190.09 38.32 189.53 37.87 188.19 37.87H184.15V41.27H187.87ZM179.38 34.24H188.8C189.2 34.24 189.61 34.28 190.01 34.32 193.37 34.76 194.98 36.54 195.02 39.53 195.06 42.44 193.45 44.3 190.7 44.62 189.93 44.7 189.16 44.78 188.4 44.78H184.15V49.96H179.38V34.24ZM204.85 43.45 203.19 38.28 201.45 43.45H204.85ZM200.2 34.24H206.14L212.2 49.96H207.03L205.98 46.81H200.28L199.23 49.96H194.05L200.2 34.24ZM231.93 34.24H246.48V37.91H241.59V49.96H236.82V37.91H231.93V34.24ZM248.78 34.24H253.75L260.99 43.37H261.03V34.24H265.72V49.96H260.91L253.55 40.7H253.51L253.55 49.96H248.78V34.24ZM308.93 44.58 309.05 44.91C309.49 45.92 310.46 46.6 312.2 46.68 314.34 46.81 315.11 46.12 315.07 45.47 315.03 44.83 314.54 44.42 312.93 44.14L311.59 43.9C311.19 43.86 310.78 43.77 310.38 43.69 309.73 43.61 309.05 43.45 308.4 43.29 305.65 42.52 304.48 40.9 304.68 38.4 304.92 35.77 307.35 33.75 312.28 33.79 316.61 33.79 319.11 35.57 319.68 38.28L319.76 38.68 314.99 39 314.91 38.8C314.54 37.95 313.61 37.43 312.08 37.43 311.83 37.43 311.55 37.43 311.31 37.47 310.1 37.63 309.61 38.08 309.57 38.52 309.53 39.17 310.06 39.49 312.89 39.85 313.53 39.93 314.34 40.06 315.55 40.3 318.46 40.9 319.88 42.52 319.96 44.83 320.04 48.1 317.62 50.4 312.56 50.4 312.08 50.4 311.55 50.36 311.07 50.32 306.95 49.92 304.88 48.22 304.32 45.51L304.2 44.83 308.93 44.58ZM269.35 34.24H284.03V37.91H274.12V40.14H282.53V43.73H274.08V46.32H284.03V49.96H269.35V34.24ZM230.23 39.53C230.19 36.54 228.57 34.76 225.22 34.32 224.81 34.28 224.41 34.24 224 34.24H214.59V49.96H219.36V44.78H221.94L224.53 49.96H229.91L226.87 44.46C228.98 43.81 230.23 42.08 230.23 39.53ZM219.32 41.27V37.87H223.36C224.73 37.87 225.3 38.28 225.46 39.21 225.5 39.33 225.5 39.45 225.5 39.57 225.5 40.62 224.69 41.27 223.03 41.27H219.32ZM302.58 39.53C302.54 36.54 300.92 34.76 297.61 34.32 297.2 34.28 296.8 34.24 296.4 34.24H286.98V49.96H291.75V44.78H294.33L296.92 49.96H302.26L299.22 44.46C301.37 43.81 302.62 42.08 302.58 39.53ZM291.71 41.27V37.87H295.75C297.12 37.87 297.69 38.28 297.85 39.21 297.89 39.33 297.89 39.45 297.89 39.57 297.89 40.62 297.08 41.27 295.43 41.27H291.71Z"/>
</svg>